<?xml version="1.0" encoding="utf-8"?>
<!-- Generator: Adobe Illustrator 23.0.1, SVG Export Plug-In . SVG Version: 6.00 Build 0)  -->
<svg version="1.1" id="Capa_1" xmlns="http://www.w3.org/2000/svg" xmlns:xlink="http://www.w3.org/1999/xlink" x="0px" y="0px"
	 viewBox="0 0 194.12 194.12" style="enable-background:new 0 0 194.12 194.12;" xml:space="preserve">
<style type="text/css">
	.st0{opacity:0.6;fill:#A2C495;stroke:#A2C495;stroke-width:2.8399;stroke-miterlimit:10;}
	.st1{fill:#FFAFC8;}
</style>
<g>
	<circle class="st0" cx="97.41" cy="98" r="94.01"/>
	<g>
		<path class="st1" d="M39.87,62.83c1,0.24,2.09,0.12,3.1,0c1.93-0.22,2.93-0.83,3.29-2.85c0.23-1.3-0.04-2.83-0.59-4.02
			c-0.62-1.33-2.15-2.42-3.69-2.54c-0.27,0.22-0.63,0.33-1.07,0.27c-0.16-0.02-0.31-0.03-0.45-0.03c-0.01,0-0.01,0-0.02,0
			c-0.26,0.11-0.51,0.14-0.73,0.11c-2.16,0.67-2.83,4.23-2.42,6.07C37.65,61.45,38.12,62.41,39.87,62.83z"/>
		<path class="st1" d="M44.52,76.64c-0.39,0.13-0.81,0.12-1.15-0.09c-0.36,0.03-0.74,0.09-1.13,0.2c-0.22,0.07-0.44,0.08-0.63,0.05
			c-1.38,0.42-2.35,1.32-2.55,3.31c-0.25,2.48,0.42,4.57,3.16,4.32c2.65-0.24,4.17-1.18,4.57-3.93C47.09,78.4,46.11,77,44.52,76.64z
			"/>
		<path class="st1" d="M117.89,86.47c-0.04-0.02-0.07-0.04-0.1-0.07c-0.01,0.01-0.02,0-0.03-0.02c-0.06-0.05-0.14-0.08-0.19-0.14
			c-0.07-0.02-0.16-0.02-0.3,0.03c-0.71,0.22-1.31,0.33-1.97,0.67c-1.15,0.6-1.86,1.31-2.28,2.57c-0.33,1-0.45,2.26-0.02,3.25
			c0.64,1.43,2.09,1.65,3.53,1.6c2.13-0.08,2.89-1.5,3.09-3.48c0.1-1.01,0.05-2.41-0.53-3.38
			C118.49,87.47,117.91,87.07,117.89,86.47z"/>
		<path class="st1" d="M108.2,101.26c-0.12,0.07-0.26,0.15-0.42,0.23c-0.89,0.42-1.95,0.54-2.64,1.29c-1.09,1.2-1.42,4.02,0.26,4.78
			c2.16,0.99,3.71-0.75,3.85-2.78c0.03-0.46,0.05-0.93,0.03-1.4c-0.02-0.59-0.38-1.31,0.2-1.38
			C108.84,102.09,108.4,101.72,108.2,101.26z"/>
		<path class="st1" d="M60.85,50.85c-0.16,0.01-0.29,0.04-0.41,0.07c-0.17,0.19-0.4,0.31-0.67,0.35c-0.23,0.18-0.45,0.39-0.77,0.57
			c-0.42,0.23-0.97,0.42-1.42,0.15c-0.11-0.07-0.22-0.13-0.33-0.2c-0.15-0.09-0.28-0.19-0.39-0.3c-0.44,0.28-0.79,0.72-1,1.34
			c-0.46,1.36-0.53,2.9,0.29,4.14c1.19,1.8,3.62,1.79,5.42,0.99c2.14-0.95,2.97-2.96,2.12-5.18C63.22,51.58,62.18,50.77,60.85,50.85
			z"/>
		<path class="st1" d="M87.26,46.9c-0.8-0.39-1.5-0.5-2.34-0.73c-0.16-0.05-0.27-0.04-0.35-0.02c-0.1,0.12-0.23,0.21-0.38,0.3
			c-0.03,0.7-0.68,1.18-1.37,1.22c-0.65,1.15-0.67,2.8-0.52,3.98c0.3,2.32,1.24,3.96,3.75,4c1.7,0.02,3.4-0.28,4.11-1.99
			c0.48-1.17,0.3-2.65-0.12-3.82C89.49,48.39,88.63,47.57,87.26,46.9z"/>
		<path class="st1" d="M96.55,63.77c-0.19-0.09-0.35-0.17-0.49-0.25c-0.23,0.55-0.74,0.99-1.49,0.92c0.68,0.06,0.28,0.92,0.27,1.62
			c-0.01,0.55,0.03,1.1,0.08,1.64c0.24,2.38,2.11,4.38,4.62,3.14c1.95-0.96,1.48-4.26,0.16-5.64
			C98.86,64.34,97.61,64.25,96.55,63.77z"/>
		<path class="st1" d="M155.81,91.68c-0.18,0.03-0.38,0.02-0.6-0.07c0,0-0.01,0-0.01,0c-0.12,0-0.25,0.01-0.38,0.03
			c-0.37,0.07-0.68-0.02-0.91-0.2c-1.31,0.14-2.58,1.1-3.08,2.24c-0.44,1.02-0.64,2.33-0.41,3.43c0.35,1.71,1.21,2.21,2.86,2.35
			c0.86,0.07,1.79,0.15,2.63-0.07c1.48-0.4,1.86-1.22,2.12-2.6C158.33,95.21,157.68,92.18,155.81,91.68z"/>
		<path class="st1" d="M154.75,111.29c-0.17,0.03-0.34,0.02-0.54-0.03c-0.35-0.09-0.68-0.13-1-0.14c-0.28,0.17-0.61,0.2-0.93,0.1
			c-1.35,0.34-2.15,1.56-1.85,3.34c0.4,2.33,1.72,3.09,3.97,3.23c2.33,0.15,2.85-1.64,2.58-3.74
			C156.78,112.36,155.94,111.61,154.75,111.29z"/>
		<path class="st1" d="M141.23,90.15c-0.1,0.1-0.2,0.19-0.33,0.26c-0.09,0.06-0.19,0.12-0.28,0.17c-0.38,0.24-0.85,0.1-1.21-0.09
			c-0.28-0.15-0.47-0.32-0.68-0.47c-0.21-0.02-0.39-0.12-0.53-0.25c-0.12-0.03-0.24-0.07-0.39-0.07c-1.13-0.04-2,0.68-2.36,1.71
			c-0.66,1.91,0.09,3.59,1.92,4.35c1.55,0.64,3.61,0.59,4.58-0.96c0.67-1.08,0.58-2.38,0.15-3.53
			C141.92,90.74,141.61,90.38,141.23,90.15z"/>
		<g>
			<g>
				<path d="M46.21,62.8c-0.11-0.04-0.23-0.07-0.34-0.11c-1.52-0.48-2.72,1.25-1.48,2.41c4.41,4.11,9.34,7.59,13.79,11.66
					c4.6,4.2,8.78,9.01,12.73,13.83c3.93,4.79,7.48,9.87,10.85,15.06c3.73,5.75,7.95,11.43,11.02,17.57
					c0.81,1.62,3.48,0.63,2.66-1.01c-2.94-5.88-6.89-11.22-10.42-16.75c-3.65-5.71-7.5-11.3-11.81-16.55
					c-3.75-4.57-7.71-9.07-11.97-13.17c-4.75-4.58-10.22-8.34-15.05-12.85c-0.49,0.8-0.98,1.6-1.48,2.41
					c0.11,0.04,0.23,0.07,0.34,0.11C46.77,65.94,47.96,63.35,46.21,62.8L46.21,62.8z"/>
			</g>
		</g>
		<g>
			<g>
				<path d="M86.09,111.01c0.02,0.07,0.05,0.14,0.07,0.21c0.89-0.34,1.77-0.67,2.66-1.01c-1.68-4.47-1.73-9.81-2.16-14.54
					c-0.39-4.27-0.64-8.55-0.78-12.83c-0.25-8.06,1.28-16.39,0.46-24.37c-0.19-1.82-3.02-1.56-2.83,0.27
					c0.88,8.53-0.73,17.57-0.39,26.2c0.19,4.9,0.57,9.78,1.09,14.65c0.42,3.93,0.56,7.89,1.96,11.62c0.65,1.72,3.25,0.72,2.66-1.01
					c-0.02-0.07-0.05-0.14-0.07-0.21C88.16,108.26,85.5,109.27,86.09,111.01L86.09,111.01z"/>
			</g>
		</g>
		<g>
			<g>
				<path d="M41.38,50.88c-4.45-0.69-7.84,4.52-7.08,8.59c0.39,2.06,0.7,3.94,2.55,5.17c1.89,1.25,4.21,1.28,6.39,1.03
					c2.06-0.23,4.08-0.71,5.08-2.73c1.04-2.11,1.07-4.71,0.4-6.93c-1.12-3.7-5.41-6.69-9.29-5.01c-1.67,0.73-0.67,3.39,1.01,2.66
					c1.93-0.84,4.4,0.52,5.23,2.3c0.55,1.18,0.82,2.72,0.59,4.02c-0.36,2.03-1.35,2.64-3.29,2.85c-1.01,0.11-2.1,0.24-3.1,0
					c-1.76-0.42-2.22-1.38-2.58-2.99c-0.48-2.15,0.5-6.64,3.61-6.16C42.72,53.97,43.19,51.17,41.38,50.88L41.38,50.88z"/>
			</g>
		</g>
		<g>
			<g>
				<path d="M63.51,78.2c-0.44-3.41-0.78-6.7-1.48-10.08c-0.57-2.76-0.51-5.84-1.42-8.48c-0.6-1.73-3.26-0.72-2.66,1.01
					c0.93,2.69,0.9,6.06,1.48,8.89c0.62,2.99,0.85,5.92,1.24,8.93C60.91,80.28,63.74,80.02,63.51,78.2L63.51,78.2z"/>
			</g>
		</g>
		<g>
			<g>
				<path d="M59.7,48.43c-4.8-1.24-7.8,3.48-6.9,7.8c0.9,4.28,5.23,5.91,9.11,4.63c3.86-1.27,5.84-4.92,4.51-8.84
					c-0.65-1.91-1.98-3.29-3.95-3.83c-0.95-0.26-1.84-0.23-2.8,0.02c-1.08,0.29-1.49,0.83-2.36,1.32c0.47-0.05,0.95-0.1,1.42-0.15
					c-0.11-0.07-0.22-0.13-0.33-0.2c0.27,0.51,0.55,1.02,0.82,1.53c0.03-0.16,0.05-0.32,0.08-0.48c0.3-1.81-2.51-2.28-2.81-0.47
					c-0.03,0.16-0.05,0.32-0.08,0.48c-0.11,0.68,0.27,1.2,0.82,1.53c0.11,0.07,0.22,0.13,0.33,0.2c0.46,0.27,1.01,0.08,1.42-0.15
					c0.69-0.39,0.9-0.93,1.86-0.99c1.33-0.09,2.38,0.73,2.83,1.93c0.84,2.22,0.01,4.23-2.12,5.18c-1.8,0.8-4.23,0.81-5.42-0.99
					c-0.82-1.24-0.75-2.78-0.29-4.14c0.51-1.52,1.87-1.99,3.39-1.6C61,51.7,61.46,48.89,59.7,48.43L59.7,48.43z"/>
			</g>
		</g>
		<g>
			<g>
				<path d="M68.21,84.73c-1.87,0.58-4.46-0.94-6.22-1.5c-1.63-0.52-3.28-0.94-4.9-1.48c-2.83-0.94-5.51-1.85-8.53-1.45
					c0.43,0.19,0.85,0.38,1.28,0.58c-0.06-0.09-0.11-0.18-0.17-0.27c-0.99-1.54-3.29,0.14-2.3,1.68c0.06,0.09,0.11,0.18,0.17,0.27
					c0.26,0.4,0.82,0.64,1.28,0.58c3.96-0.52,8.25,1.53,12,2.7c2.78,0.86,5.44,2.48,8.39,1.57C70.97,86.85,69.95,84.19,68.21,84.73
					L68.21,84.73z"/>
			</g>
		</g>
		<g>
			<g>
				<path d="M45.48,74.81c-0.03-0.09-0.06-0.18-0.09-0.27c-0.2-0.62-0.85-0.93-1.46-0.91c-4.56,0.13-7.67,2.19-7.73,7.06
					c-0.06,4.42,2.37,7.14,6.84,6.52c1.87-0.26,3.95-0.78,5.15-2.35c1.16-1.52,1.66-4.01,1.52-5.89c-0.33-4.41-4.64-6.02-8.48-4.87
					c-1.76,0.52-0.74,3.18,1.01,2.66c2.85-0.85,4.98,0.77,4.55,3.76c-0.4,2.75-1.92,3.69-4.57,3.93c-2.74,0.25-3.41-1.84-3.16-4.32
					c0.31-3.08,2.43-3.58,5.14-3.65c-0.49-0.3-0.98-0.61-1.46-0.91c0.03,0.09,0.06,0.18,0.09,0.27
					C43.39,77.56,46.05,76.55,45.48,74.81L45.48,74.81z"/>
			</g>
		</g>
		<g>
			<g>
				<path d="M83.01,43.88c-3.75,1.56-4.22,6.51-3.16,9.95c1.4,4.55,6.73,6.19,10.81,3.61c3.98-2.51,3.05-9.36-0.29-12.02
					c-1.72-1.36-4.22-2.42-6.41-1.94c-1.59,0.35-3.44,1.49-2.58,3.35c0.76,1.65,3.43,0.66,2.66-1.01c0.51,1.12-0.02,0.1,0.87,0.35
					c0.84,0.23,1.55,0.34,2.34,0.73c1.37,0.66,2.23,1.48,2.76,2.95c0.42,1.16,0.61,2.64,0.12,3.82c-0.7,1.71-2.41,2.01-4.11,1.99
					c-2.51-0.03-3.44-1.67-3.75-4c-0.22-1.69-0.11-4.36,1.73-5.12C85.71,45.83,84.71,43.17,83.01,43.88L83.01,43.88z"/>
			</g>
		</g>
		<g>
			<g>
				<path d="M84.15,82.33c2.7,0.19,4.25-3.16,5.75-4.97c1.11-1.33,2.1-2.74,3.14-4.12c0.7-0.93,1.56-1.69,1.76-2.88
					c0.3-1.81-2.51-2.28-2.81-0.47c-0.1,0.6-1.03,1.38-1.39,1.88c-0.7,0.96-1.39,1.92-2.12,2.85c-0.68,0.86-1.41,1.68-2.1,2.54
					c-0.14,0.17-1.55,2.38-1.75,2.37C82.8,79.4,82.32,82.2,84.15,82.33L84.15,82.33z"/>
			</g>
		</g>
		<g>
			<g>
				<path d="M95.03,61.64c-3.23-0.29-3.16,3.83-2.97,6.06c0.35,4.21,3.17,7.08,7.54,6.07c3.85-0.89,4.8-4.86,3.52-8.28
					c-0.75-2-2.11-3.16-4.09-3.86c-2.21-0.78-3.1-1.9-5.51-0.86c-1.68,0.72-0.67,3.39,1.01,2.66c0.96-0.42,1.17-0.04,2.01,0.34
					c1.06,0.47,2.31,0.57,3.15,1.44c1.32,1.37,1.79,4.68-0.16,5.64c-2.51,1.23-4.38-0.76-4.62-3.14c-0.05-0.54-0.09-1.09-0.08-1.64
					c0.01-0.69,0.4-1.56-0.27-1.62C96.38,64.61,96.86,61.81,95.03,61.64L95.03,61.64z"/>
			</g>
		</g>
		<g>
			<g>
				<path d="M150.52,99.51c0.1-0.03,0.19-0.07,0.29-0.1c1.28-0.44,2.34,1,1.31,2.01c-3.65,3.59-7.76,6.67-11.45,10.22
					c-3.81,3.68-7.25,7.86-10.5,12.04c-3.23,4.16-6.13,8.55-8.87,13.04c-3.04,4.97-6.49,9.89-8.96,15.18
					c-0.65,1.4-2.94,0.61-2.28-0.8c2.36-5.06,5.59-9.69,8.47-14.47c2.97-4.94,6.12-9.78,9.65-14.33c3.08-3.97,6.35-7.88,9.87-11.46
					c3.93-4,8.5-7.32,12.5-11.26c0.44,0.67,0.87,1.34,1.31,2.01c-0.1,0.03-0.19,0.07-0.29,0.1
					C150.11,102.19,149.05,100.01,150.52,99.51L150.52,99.51z"/>
			</g>
		</g>
		<g>
			<g>
				<path d="M117.74,141.37c-0.02,0.06-0.04,0.12-0.06,0.18c-0.76-0.27-1.52-0.53-2.28-0.8c1.32-3.83,1.24-8.37,1.51-12.4
					c0.24-3.64,0.35-7.28,0.37-10.92c0.03-6.85-1.47-13.89-0.95-20.69c0.12-1.55,2.53-1.39,2.41,0.16
					c-0.56,7.27,1.02,14.91,0.93,22.25c-0.05,4.17-0.26,8.32-0.59,12.47c-0.27,3.35-0.3,6.72-1.4,9.92
					c-0.51,1.48-2.75,0.69-2.28-0.8c0.02-0.06,0.04-0.12,0.06-0.18C115.92,139.09,118.21,139.89,117.74,141.37L117.74,141.37z"/>
			</g>
		</g>
		<g>
			<g>
				<path d="M154.35,89.27c3.76-0.69,6.77,3.66,6.21,7.13c-0.28,1.76-0.51,3.37-2.05,4.45c-1.58,1.1-3.55,1.18-5.41,1.02
					c-1.75-0.15-3.49-0.51-4.38-2.2c-0.94-1.77-1.01-3.98-0.5-5.88c0.86-3.17,4.44-5.81,7.78-4.47c1.44,0.58,0.65,2.87-0.8,2.28
					c-1.66-0.67-3.73,0.54-4.39,2.07c-0.44,1.02-0.64,2.33-0.41,3.43c0.35,1.71,1.21,2.21,2.86,2.35c0.86,0.07,1.79,0.16,2.63-0.07
					c1.48-0.4,1.86-1.22,2.12-2.6c0.36-1.84-0.58-5.63-3.21-5.15C153.28,91.93,152.82,89.55,154.35,89.27L154.35,89.27z"/>
			</g>
		</g>
		<g>
			<g>
				<path d="M136.17,112.98c0.29-2.91,0.51-5.71,1.03-8.6c0.42-2.36,0.3-4.97,1.01-7.23c0.47-1.49,2.75-0.69,2.28,0.8
					c-0.73,2.31-0.62,5.17-1.06,7.58c-0.46,2.56-0.59,5.05-0.85,7.62C138.43,114.69,136.02,114.53,136.17,112.98L136.17,112.98z"/>
			</g>
		</g>
		<g>
			<g>
				<path d="M138.73,87.61c4.05-1.17,6.71,2.78,6.04,6.47c-0.66,3.66-4.31,5.14-7.63,4.14c-3.31-0.99-5.07-4.05-4.03-7.4
					c0.51-1.64,1.6-2.84,3.27-3.34c0.8-0.24,1.56-0.24,2.38-0.04c0.92,0.22,1.28,0.67,2.04,1.07c-0.4-0.03-0.81-0.06-1.21-0.09
					c0.09-0.06,0.19-0.12,0.28-0.18c-0.22,0.44-0.44,0.88-0.66,1.32c-0.03-0.14-0.05-0.27-0.08-0.41c-0.29-1.53,2.08-1.99,2.37-0.46
					c0.03,0.14,0.05,0.27,0.08,0.41c0.11,0.58-0.2,1.03-0.66,1.32c-0.09,0.06-0.19,0.12-0.28,0.18c-0.38,0.24-0.85,0.1-1.21-0.09
					c-0.6-0.32-0.79-0.77-1.6-0.8c-1.13-0.04-2,0.68-2.36,1.71c-0.66,1.91,0.09,3.59,1.92,4.35c1.55,0.64,3.61,0.59,4.58-0.96
					c0.67-1.08,0.58-2.38,0.15-3.53c-0.47-1.28-1.63-1.65-2.92-1.28C137.69,90.41,137.24,88.03,138.73,87.61L138.73,87.61z"/>
			</g>
		</g>
		<g>
			<g>
				<path d="M132.33,118.64c1.6,0.45,3.77-0.9,5.25-1.42c1.37-0.48,2.77-0.88,4.13-1.37c2.38-0.87,4.64-1.7,7.21-1.43
					c-0.36,0.17-0.72,0.35-1.08,0.52c0.05-0.08,0.09-0.15,0.14-0.23c0.81-1.33,2.8,0.05,1.99,1.38c-0.05,0.08-0.09,0.15-0.14,0.23
					c-0.21,0.34-0.68,0.56-1.08,0.52c-3.38-0.35-6.97,1.49-10.13,2.57c-2.34,0.8-4.56,2.23-7.09,1.53
					C130.03,120.5,130.84,118.22,132.33,118.64L132.33,118.64z"/>
			</g>
		</g>
		<g>
			<g>
				<path d="M151.41,109.69c0.02-0.08,0.05-0.16,0.07-0.23c0.16-0.53,0.7-0.81,1.22-0.81c3.87,0,6.56,1.68,6.73,5.82
					c0.15,3.76-1.85,6.12-5.66,5.69c-1.59-0.18-3.38-0.57-4.43-1.88c-1.02-1.27-1.5-3.37-1.43-4.96c0.18-3.76,3.8-5.22,7.09-4.33
					c1.5,0.4,0.7,2.68-0.8,2.28c-2.44-0.65-4.21,0.77-3.78,3.3c0.4,2.33,1.72,3.09,3.97,3.23c2.33,0.15,2.85-1.64,2.58-3.74
					c-0.33-2.61-2.14-2.98-4.45-2.99c0.41-0.27,0.82-0.54,1.22-0.81c-0.02,0.08-0.05,0.16-0.07,0.23
					C153.25,111.98,150.97,111.18,151.41,109.69L151.41,109.69z"/>
			</g>
		</g>
		<g>
			<g>
				<path d="M118.82,84.27c3.22,1.24,3.73,5.43,2.91,8.38c-1.09,3.9-5.57,5.41-9.1,3.32c-3.44-2.04-2.8-7.89-0.03-10.21
					c1.43-1.2,3.53-2.16,5.4-1.8c1.36,0.26,2.95,1.19,2.27,2.79c-0.61,1.42-2.9,0.64-2.28-0.8c-0.41,0.96,0.02,0.09-0.73,0.32
					c-0.71,0.22-1.31,0.33-1.97,0.67c-1.15,0.6-1.86,1.31-2.28,2.57c-0.33,1-0.45,2.26-0.02,3.25c0.64,1.43,2.09,1.65,3.53,1.6
					c2.13-0.08,2.89-1.5,3.09-3.48c0.15-1.44-0.01-3.7-1.59-4.31C116.57,86,117.36,83.71,118.82,84.27L118.82,84.27z"/>
			</g>
		</g>
		<g>
			<g>
				<path d="M118.74,116.97c-2.29,0.22-3.69-2.59-5-4.09c-0.97-1.11-1.84-2.28-2.76-3.43c-0.62-0.77-1.36-1.4-1.56-2.41
					c-0.3-1.53,2.08-1.99,2.37-0.46c0.1,0.5,0.91,1.15,1.23,1.56c0.61,0.8,1.22,1.6,1.87,2.37c0.6,0.71,1.24,1.4,1.85,2.11
					c0.12,0.15,1.37,1.99,1.54,1.97C119.81,114.44,120.29,116.82,118.74,116.97L118.74,116.97z"/>
			</g>
		</g>
		<g>
			<g>
				<path d="M109.01,99.64c2.73-0.32,2.77,3.18,2.66,5.08c-0.2,3.59-2.53,6.08-6.27,5.33c-3.29-0.67-4.19-4.02-3.18-6.95
					c0.59-1.72,1.72-2.74,3.39-3.37c1.86-0.71,2.59-1.69,4.66-0.86c1.44,0.58,0.65,2.86-0.8,2.28c-0.83-0.33-0.99,0-1.7,0.33
					c-0.89,0.42-1.95,0.54-2.64,1.29c-1.09,1.2-1.42,4.02,0.26,4.78c2.16,0.99,3.71-0.75,3.85-2.78c0.03-0.46,0.05-0.93,0.03-1.4
					c-0.02-0.59-0.38-1.31,0.2-1.38C107.94,102.2,107.47,99.82,109.01,99.64L109.01,99.64z"/>
			</g>
		</g>
	</g>
</g>
</svg>
