<?xml version="1.0" encoding="utf-8"?>
<!-- Generator: Adobe Illustrator 23.0.1, SVG Export Plug-In . SVG Version: 6.00 Build 0)  -->
<svg version="1.1" id="Capa_1" xmlns="http://www.w3.org/2000/svg" xmlns:xlink="http://www.w3.org/1999/xlink" x="0px" y="0px"
	 viewBox="0 0 194.12 194.12" style="enable-background:new 0 0 194.12 194.12;" xml:space="preserve">
<style type="text/css">
	.st0{opacity:0.6;fill:#A2C495;stroke:#A2C495;stroke-width:2.5364;stroke-miterlimit:10;}
	.st1{fill:#DBC8BA;}
</style>
<g>
	<circle class="st0" cx="97.59" cy="98" r="94.01"/>
	<g>
		<g>
			<g>
				<path d="M96.78,61c2.28-5.2,5.44-8.19,9.79-11.81c1.64-1.36,7.52-7.89,9.12-6.74c2.52,1.82,3.94,9.2,4.47,12.04
					c0.84,4.5,1.87,9.09,0.77,13.6c-0.11,0.45,0.54,0.85,0.86,0.98c6.08,2.38,11.63-4.09,17.73-4.69c-0.88-0.23-1.76-0.47-2.65-0.7
					c4.34,3.98,0.19,13.55-1.5,17.84c-1.17,2.95-2.2,5.76-4.36,8.12c-0.86,0.94-3.31,2.35-3.46,3.75c-0.44,4.13,5.57,2.58,7.99,2
					c0.69-0.16,1.97-1.27,2.6-0.62c0.55,0.58-2.63,6.59-3.15,7.45c-3.02,4.99-9.12,8.55-14.54,10.49
					c-7.26,2.62-15.71,1.42-22.63-1.71c-3.22-1.46-4.92-3.66-8.33-4.44c-6.29-1.43-12.38-2.36-17.63-6.54
					c-5.11-4.07-9.34-10.35-12.05-16.2c-1.47-3.19-4.92-11.68-3.2-15.19c1.91-3.9,5-0.58,8.37,0.03c1.85,0.34,3.25,0.04,4.39-1.49
					c1.1-1.48,0.56-3.72,0.78-5.38c0.38-2.91,1.49-5.47,2.66-8.15c1.14-2.61,2.27-5.02,3.97-7.33c2.8-3.81,4.67-3.24,8.09,0.09
					c2.83,2.76,7.17,9.35,7.75,13.25c0.18,1.24,4.1,1.54,3.86-0.03c-0.84-5.67-5.7-11.28-9.48-15.48c-2.33-2.59-5.51-5.42-9.17-3.76
					c-5.34,2.42-8.24,10.66-10.18,15.57c-0.97,2.47-1.21,4.51-1.47,7.12c-0.05,0.59-0.1,1.18-0.15,1.76
					c0.19,1.92-0.32,2.33-1.55,1.23c-0.16,0.02-3.31-0.88-3.51-0.93c-2.95-0.73-6.44-2.14-7.99,1.32
					c-1.83,4.08,0.51,11.53,2.09,15.37c5.53,13.44,15.09,22.33,29.1,25.85c10,2.51,18.5,9.22,29.8,8.43
					c11.43-0.8,24.23-7.23,27.59-19.02c0.82-2.86,0.55-5.03-2.58-5.49c-2.19-0.32-3.4,1.18-5.35,1.81c-4.47,1.44-0.56-0.96,1.1-2.78
					c3.87-4.23,13.96-26.97,3.5-28.27c-2.72-0.34-6.09,1.42-8.47,2.39c0.52-0.21-3.29,1.5-3.3,1.5c-2.8,0.52-0.31,1.15-0.98-1.1
					c-2.33-7.84-1.22-16.06-6.21-23.27c-2.14-3.1-4.29-3.48-7.58-1.47c-3.68,2.25-7.01,6.14-10.32,8.9
					c-3.88,3.23-6.26,5.93-8.33,10.65C92.42,61.43,96.28,62.16,96.78,61L96.78,61z"/>
			</g>
		</g>
		<path class="st1" d="M131.14,89.75c2.16-2.36,3.19-5.17,4.36-8.12c1.56-3.96,5.19-12.38,2.36-16.79
			c-5.41,1.45-10.47,6.49-15.94,4.34c-0.32-0.13-0.97-0.52-0.86-0.98c1.1-4.51,0.07-9.11-0.77-13.6
			c-0.53-2.84-1.94-10.22-4.47-12.04c-1.6-1.16-7.48,5.37-9.12,6.74c-4.34,3.62-7.51,6.61-9.79,11.81c-0.48,1.1-3.97,0.5-3.78-0.8
			c-0.19-0.15-0.33-0.32-0.36-0.52c-0.58-3.9-4.92-10.49-7.75-13.25c-3.42-3.34-5.29-3.9-8.09-0.09c-1.7,2.31-2.83,4.73-3.97,7.33
			c-1.17,2.68-2.28,5.24-2.66,8.15c-0.22,1.66,0.33,3.9-0.78,5.38c-1.14,1.53-2.54,1.83-4.39,1.49c-3.37-0.61-6.46-3.93-8.37-0.03
			c-1.72,3.51,1.73,12,3.2,15.19c2.7,5.85,6.94,12.13,12.05,16.2c5.25,4.18,11.34,5.11,17.63,6.54c3.41,0.78,5.11,2.98,8.33,4.44
			c6.92,3.14,15.37,4.33,22.63,1.71c5.41-1.95,11.51-5.5,14.54-10.49c0.52-0.86,3.7-6.88,3.15-7.45c-0.62-0.65-1.91,0.45-2.6,0.62
			c-2.42,0.58-8.43,2.13-7.99-2C127.83,92.11,130.27,90.7,131.14,89.75z"/>
		<g>
			<g>
				<path d="M105.48,65.1c-2.31,2.39-2.86,5.38-4.18,8.39c-1.54,3.54-3.42,6.93-5.01,10.45c-3.29,7.29-6.1,14.65-7.81,22.48
					c-3.55,16.26-5.27,32.68-7.81,49.07c-0.21,1.35,3.72,1.9,3.94,0.51c2.41-15.56,4.19-31.09,7.28-46.56
					c1.71-8.56,4.52-16.53,8.12-24.48c1.6-3.52,3.45-6.92,5.01-10.45c1.26-2.86,1.98-6.12,4.18-8.39
					C110.12,65.17,106.43,64.12,105.48,65.1L105.48,65.1z"/>
			</g>
		</g>
		<g>
			<g>
				<path d="M82.24,62.74c0.32,5.89,0.98,11.77,2.13,17.56c1.05,5.29,1.62,10.06,5.23,14.29c0.81,0.95,4.68,0.8,3.53-0.55
					c-3.46-4.06-3.88-8.75-4.89-13.77c-1.12-5.61-1.75-11.3-2.06-17.02C86.09,61.79,82.17,61.48,82.24,62.74L82.24,62.74z"/>
			</g>
		</g>
		<g>
			<g>
				<path d="M92.28,102.16c-0.05,0.19-0.1,0.38-0.15,0.56c-0.12,0.46,0.56,0.83,0.86,0.98c3.32,1.58,7.35-0.02,10.41-1.49
					c4.42-2.12,6.75-6.54,10.99-8.74c1.48-0.77-2.16-2.01-3.27-1.43c-3.22,1.67-4.97,4.84-7.82,6.95c-1.45,1.07-6.3,4.13-8.1,3.28
					c0.29,0.33,0.58,0.65,0.86,0.98c0.05-0.19,0.1-0.38,0.15-0.56C96.54,101.43,92.65,100.76,92.28,102.16L92.28,102.16z"/>
			</g>
		</g>
	</g>
</g>
</svg>
